HIERARCHY
ROOT Root
{
  OFFSET 0.0 0.0 0.0
  CHANNELS 6 Xposition Yposition Zposition Zrotation Yrotation Xrotation
  JOINT Hips
  {
    OFFSET 0.0 100.0 0.0
    CHANNELS 6 Xposition Yposition Zposition Zrotation Yrotation Xrotation
    JOINT Spine1
    {
      OFFSET 5.003913 -0.037094 -0.013727
      CHANNELS 3 Zrotation Yrotation Xrotation
      JOINT Spine2
      {
        OFFSET 7.125363 -1e-06 0.0
        CHANNELS 3 Zrotation Yrotation Xrotation
        JOINT Chest
        {
          OFFSET 7.594027 1e-06 0.0
          CHANNELS 3 Zrotation Yrotation Xrotation
          JOINT Neck1
          {
            OFFSET 26.313086 -0.460272 -0.181672
            CHANNELS 3 Zrotation Yrotation Xrotation
            JOINT Neck2
            {
              OFFSET 8.045911 0.0 0.0
              CHANNELS 3 Zrotation Yrotation Xrotation
              JOINT Head
              {
                OFFSET 6.432774 0.0 0.0
                CHANNELS 3 Zrotation Yrotation Xrotation
                JOINT HeadEnd
                {
                  OFFSET 16.169773 0.06451 0.00362
                  CHANNELS 3 Zrotation Yrotation Xrotation
                }
                JOINT Jaw
                {
                  OFFSET 0.108741 3.12938 0.002639
                  CHANNELS 3 Zrotation Yrotation Xrotation
                }
                JOINT LeftEye
                {
                  OFFSET 4.45173 8.166359 3.206392
                  CHANNELS 3 Zrotation Yrotation Xrotation
                }
                JOINT RightEye
                {
                  OFFSET 4.436895 8.135758 -3.222429
                  CHANNELS 3 Zrotation Yrotation Xrotation
                }
              }
            }
          }
          JOINT LeftShoulder
          {
            OFFSET 23.218927 5.195579 1.621656
            CHANNELS 3 Zrotation Yrotation Xrotation
            JOINT LeftArm
            {
              OFFSET 15.902118 2e-06 -2e-06
              CHANNELS 3 Zrotation Yrotation Xrotation
              JOINT LeftForeArm
              {
                OFFSET 28.739307 0.0 -1e-06
                CHANNELS 3 Zrotation Yrotation Xrotation
                JOINT LeftHand
                {
                  OFFSET 27.093981 -4e-06 0.0
                  CHANNELS 3 Zrotation Yrotation Xrotation
                  JOINT LeftHandThumb1
                  {
                    OFFSET 2.276781 3.380274 0.83384
                    CHANNELS 3 Zrotation Yrotation Xrotation
                    JOINT LeftHandThumb2
                    {
                      OFFSET 4.705309 -1e-06 -1e-06
                      CHANNELS 3 Zrotation Yrotation Xrotation
                      JOINT LeftHandThumb3
                      {
                        OFFSET 2.798515 0.0 3e-06
                        CHANNELS 3 Zrotation Yrotation Xrotation
                        JOINT LeftHandThumbEnd
                        {
                          OFFSET 3.180793 4e-06 -4e-06
                          CHANNELS 3 Zrotation Yrotation Xrotation
                        }
                      }
                    }
                  }
                  JOINT LeftHandIndex1
                  {
                    OFFSET 3.247786 2.352677 0.137192
                    CHANNELS 3 Zrotation Yrotation Xrotation
                    JOINT LeftHandIndex2
                    {
                      OFFSET 6.367095 1e-06 0.0
                      CHANNELS 3 Zrotation Yrotation Xrotation
                      JOINT LeftHandIndex3
                      {
                        OFFSET 3.662364 0.0 0.0
                        CHANNELS 3 Zrotation Yrotation Xrotation
                        JOINT LeftHandIndex4
                        {
                          OFFSET 2.329242 4e-06 -4e-06
                          CHANNELS 3 Zrotation Yrotation Xrotation
                          JOINT LeftHandIndexEnd
                          {
                            OFFSET 2.767823 1e-06 0.0
                            CHANNELS 3 Zrotation Yrotation Xrotation
                          }
                        }
                      }
                    }
                  }
                  JOINT LeftHandMiddle1
                  {
                    OFFSET 3.163612 0.945023 -0.406112
                    CHANNELS 3 Zrotation Yrotation Xrotation
                    JOINT LeftHandMiddle2
                    {
                      OFFSET 6.276789 3e-06 0.0
                      CHANNELS 3 Zrotation Yrotation Xrotation
                      JOINT LeftHandMiddle3
                      {
                        OFFSET 4.35652 -1e-06 4e-06
                        CHANNELS 3 Zrotation Yrotation Xrotation
                        JOINT LeftHandMiddle4
                        {
                          OFFSET 2.996877 0.0 8e-06
                          CHANNELS 3 Zrotation Yrotation Xrotation
                          JOINT LeftHandMiddleEnd
                          {
                            OFFSET 2.323256 3e-06 -4e-06
                            CHANNELS 3 Zrotation Yrotation Xrotation
                          }
                        }
                      }
                    }
                  }
                  JOINT LeftHandRing1
                  {
                    OFFSET 2.882606 -0.309162 0.107445
                    CHANNELS 3 Zrotation Yrotation Xrotation
                    JOINT LeftHandRing2
                    {
                      OFFSET 6.033198 0.0 4e-06
                      CHANNELS 3 Zrotation Yrotation Xrotation
                      JOINT LeftHandRing3
                      {
                        OFFSET 4.350578 3e-06 0.0
                        CHANNELS 3 Zrotation Yrotation Xrotation
                        JOINT LeftHandRing4
                        {
                          OFFSET 2.651321 2e-06 -7e-06
                          CHANNELS 3 Zrotation Yrotation Xrotation
                          JOINT LeftHandRingEnd
                          {
                            OFFSET 1.937663 1e-06 -4e-06
                            CHANNELS 3 Zrotation Yrotation Xrotation
                          }
                        }
                      }
                    }
                  }
                  JOINT LeftHandPinky1
                  {
                    OFFSET 2.865315 -1.525436 0.575687
                    CHANNELS 3 Zrotation Yrotation Xrotation
                    JOINT LeftHandPinky2
                    {
                      OFFSET 5.54936 1e-06 -8e-06
                      CHANNELS 3 Zrotation Yrotation Xrotation
                      JOINT LeftHandPinky3
                      {
                        OFFSET 3.070974 0.0 -4e-06
                        CHANNELS 3 Zrotation Yrotation Xrotation
                        JOINT LeftHandPinky4
                        {
                          OFFSET 1.549672 1e-06 0.0
                          CHANNELS 3 Zrotation Yrotation Xrotation
                          JOINT LeftHandPinkyEnd
                          {
                            OFFSET 1.952123 0.0 0.0
                            CHANNELS 3 Zrotation Yrotation Xrotation
                          }
                        }
                      }
                    }
                  }
                }
              }
            }
          }
          JOINT RightShoulder
          {
            OFFSET 23.161716 5.296122 -1.380114
            CHANNELS 3 Zrotation Yrotation Xrotation
            JOINT RightArm
            {
              OFFSET -16.027195 -2e-06 1.1e-05
              CHANNELS 3 Zrotation Yrotation Xrotation
              JOINT RightForeArm
              {
                OFFSET -28.736639 4e-06 2e-06
                CHANNELS 3 Zrotation Yrotation Xrotation
                JOINT RightHand
                {
                  OFFSET -27.133619 6e-06 0.0
                  CHANNELS 3 Zrotation Yrotation Xrotation
                  JOINT RightHandThumb1
                  {
                    OFFSET -2.274328 -3.351035 -0.83067
                    CHANNELS 3 Zrotation Yrotation Xrotation
                    JOINT RightHandThumb2
                    {
                      OFFSET -4.703594 -3e-06 2e-06
                      CHANNELS 3 Zrotation Yrotation Xrotation
                      JOINT RightHandThumb3
                      {
                        OFFSET -2.794935 -4e-06 -3e-06
                        CHANNELS 3 Zrotation Yrotation Xrotation
                        JOINT RightHandThumbEnd
                        {
                          OFFSET -3.183852 4e-06 1e-06
                          CHANNELS 3 Zrotation Yrotation Xrotation
                        }
                      }
                    }
                  }
                  JOINT RightHandIndex1
                  {
                    OFFSET -3.253496 -2.33755 -0.127667
                    CHANNELS 3 Zrotation Yrotation Xrotation
                    JOINT RightHandIndex2
                    {
                      OFFSET -6.344434 0.0 0.0
                      CHANNELS 3 Zrotation Yrotation Xrotation
                      JOINT RightHandIndex3
                      {
                        OFFSET -3.654871 0.0 -8e-06
                        CHANNELS 3 Zrotation Yrotation Xrotation
                        JOINT RightHandIndex4
                        {
                          OFFSET -2.327586 -1e-06 0.0
                          CHANNELS 3 Zrotation Yrotation Xrotation
                          JOINT RightHandIndexEnd
                          {
                            OFFSET -2.770001 3e-06 8e-06
                            CHANNELS 3 Zrotation Yrotation Xrotation
                          }
                        }
                      }
                    }
                  }
                  JOINT RightHandMiddle1
                  {
                    OFFSET -3.168223 -0.944764 0.411762
                    CHANNELS 3 Zrotation Yrotation Xrotation
                    JOINT RightHandMiddle2
                    {
                      OFFSET -6.266691 -1e-06 -4e-06
                      CHANNELS 3 Zrotation Yrotation Xrotation
                      JOINT RightHandMiddle3
                      {
                        OFFSET -4.348901 0.0 0.0
                        CHANNELS 3 Zrotation Yrotation Xrotation
                        JOINT RightHandMiddle4
                        {
                          OFFSET -3.00024 2e-06 -4e-06
                          CHANNELS 3 Zrotation Yrotation Xrotation
                          JOINT RightHandMiddleEnd
                          {
                            OFFSET -2.321477 -4e-06 -4e-06
                            CHANNELS 3 Zrotation Yrotation Xrotation
                          }
                        }
                      }
                    }
                  }
                  JOINT RightHandRing1
                  {
                    OFFSET -2.885654 0.293261 -0.119232
                    CHANNELS 3 Zrotation Yrotation Xrotation
                    JOINT RightHandRing2
                    {
                      OFFSET -6.032835 -1e-06 -4e-06
                      CHANNELS 3 Zrotation Yrotation Xrotation
                      JOINT RightHandRing3
                      {
                        OFFSET -4.33881 0.0 -4e-06
                        CHANNELS 3 Zrotation Yrotation Xrotation
                        JOINT RightHandRing4
                        {
                          OFFSET -2.654903 -4e-06 -4e-06
                          CHANNELS 3 Zrotation Yrotation Xrotation
                          JOINT RightHandRingEnd
                          {
                            OFFSET -1.935122 0.0 4e-06
                            CHANNELS 3 Zrotation Yrotation Xrotation
                          }
                        }
                      }
                    }
                  }
                  JOINT RightHandPinky1
                  {
                    OFFSET -2.866241 1.503904 -0.60527
                    CHANNELS 3 Zrotation Yrotation Xrotation
                    JOINT RightHandPinky2
                    {
                      OFFSET -5.553177 -2e-06 0.0
                      CHANNELS 3 Zrotation Yrotation Xrotation
                      JOINT RightHandPinky3
                      {
                        OFFSET -3.062664 -1e-06 -4e-06
                        CHANNELS 3 Zrotation Yrotation Xrotation
                        JOINT RightHandPinky4
                        {
                          OFFSET -1.546529 2e-06 4e-06
                          CHANNELS 3 Zrotation Yrotation Xrotation
                          JOINT RightHandPinkyEnd
                          {
                            OFFSET -1.952341 0.0 -4e-06
                            CHANNELS 3 Zrotation Yrotation Xrotation
                          }
                        }
                      }
                    }
                  }
                }
              }
            }
          }
        }
      }
    }
    JOINT LeftLeg
    {
      OFFSET -8.443107 2.567604 10.043214
      CHANNELS 3 Zrotation Yrotation Xrotation
      JOINT LeftShin
      {
        OFFSET 43.229198 1e-06 -1e-06
        CHANNELS 3 Zrotation Yrotation Xrotation
        JOINT LeftFoot
        {
          OFFSET 42.298611 1e-06 1e-06
          CHANNELS 3 Zrotation Yrotation Xrotation
          JOINT LeftToeBase
          {
            OFFSET 14.165858 1e-06 0.0
            CHANNELS 3 Zrotation Yrotation Xrotation
            JOINT LeftToeEnd
            {
              OFFSET 6.7141 -0.234461 0.0
              CHANNELS 3 Zrotation Yrotation Xrotation
            }
          }
        }
      }
    }
    JOINT RightLeg
    {
      OFFSET -8.303923 2.592729 -10.047278
      CHANNELS 3 Zrotation Yrotation Xrotation
      JOINT RightShin
      {
        OFFSET -43.369682 0.0 1e-06
        CHANNELS 3 Zrotation Yrotation Xrotation
        JOINT RightFoot
        {
          OFFSET -42.260784 4e-06 2e-06
          CHANNELS 3 Zrotation Yrotation Xrotation
          JOINT RightToeBase
          {
            OFFSET -14.222245 -2e-06 -1e-06
            CHANNELS 3 Zrotation Yrotation Xrotation
            JOINT RightToeEnd
            {
              OFFSET -6.660062 0.232574 -2e-06
              CHANNELS 3 Zrotation Yrotation Xrotation
            }
          }
        }
      }
    }
  }
}
MOTION
Frames: 4
Frame Time: 0.03333333333333333
0.0 0.0 0.0 0.0 -0.0 0.0 -12.817359 9.085208 167.658676 153.334488 -85.672607 24.95233 1.417522 0.912549 -0.184168 -10.552043 -0.051945 0.974645 11.273381 -0.917643 0.25977 -7.365149 1.761045 2.485885 -2.531928 -0.724472 -3.736686 -46.009781 1.516803 -5.957681 5e-06 1e-06 0.0 -0.170902 -0.153023 0.349909 -0.066451 -0.206552 0.42532 -0.05835 -0.095395 0.295943 -8.903623 -65.059761 12.746099 16.795536 -51.476654 -62.638332 160.998383 0.561759 0.66809 -3.260571 19.036768 27.590565 17.636631 -26.322731 52.411213 -19.466663 -14.395598 29.410395 0.0 -8.774822 -2e-06 15.326613 -17.451874 5.562407 -0.609776 -1.795655 -3.889328 -4.807089 -11.046813 -2.937851 4e-06 -20.976021 -2e-06 -5.019969 -25.03356 -4.031883 6e-06 -1e-06 -1e-06 -10.634538 -5.686973 -3.565587 10.573277 -17.922955 -3.113902 3e-06 -13.821213 -4e-06 -0.501779 -31.181511 -4.027021 -10.359821 -57.824341 5.55572 -13.982719 -7.150201 -2.875042 13.772734 -8.401491 -3.218243 0.34773 -34.211555 0.77165 -0.963028 -17.733372 2.621018 -1e-06 -2e-06 -1e-06 -17.346426 -20.095224 -4.201783 21.757566 -1.638372 3.866431 1e-06 -6.338824 -0.0 -1.697589 -22.591751 -6.194012 -2e-06 -5e-06 -3e-06 173.211349 -71.352303 15.341706 11.404258 -23.988773 -76.353767 149.452133 -0.235022 0.97422 -16.161787 20.058487 11.044729 22.182123 -20.375898 49.933323 -16.701813 -16.74353 28.47653 -3e-06 -12.690602 -1e-06 14.937129 -17.949152 2.927206 -0.105922 -1.513856 -4.275883 -5.039039 -5.612872 -2.953556 3e-06 -11.020521 -2e-06 -6.1113 -15.89533 -3.84047 0.0 -1e-06 1e-06 -10.283374 -5.680289 -4.341838 11.028296 -11.302405 -2.372632 -1.384269 -14.23858 -6.320121 -0.625439 -26.924187 -3.8276 -4.41409 -50.367325 -2.975486 -13.708527 -7.363477 -3.720941 18.141151 -14.05274 -3.242673 6e-06 -18.787271 -1e-06 -0.429713 -8.456043 2.555505 1e-06 1e-06 -1e-06 -15.923539 -20.094486 -5.473584 30.419218 -7.190829 1.735927 2e-06 -8.162927 -0.0 -1.8619 -22.861469 -6.167943 1e-06 -2e-06 -2e-06 -175.061005 -17.203657 -122.553856 -0.529806 -11.855799 92.292244 -94.942085 34.46917 -19.339443 -18.269417 0.963052 1.831927 -1.0 0.0 0.0 0.74979 -0.987255 -132.818436 -8.894593 -13.473208 119.262901 -89.485619 12.280849 6.889744 -17.743629 0.631022 1.249103 -1.000001 0.0 -0.0 
0.0 0.0 0.0 0.0 -0.0 0.0 -12.816304 9.085769 167.575043 153.062698 -85.6614 25.213387 1.427595 0.904203 -0.198321 -10.559889 -0.063406 0.973141 11.27252 -0.888093 0.287069 -7.37059 1.661324 2.486519 -2.534575 -0.758719 -3.796846 -46.125854 1.617435 -6.060552 6e-06 0.0 -0.0 -0.173359 -0.163057 0.367596 -0.053534 -0.21965 0.446781 -0.048831 -0.102112 0.309388 -8.808405 -65.078499 12.722904 16.788826 -51.409515 -62.609913 160.980301 0.573417 0.695603 -3.192152 19.124237 28.045135 17.636631 -26.322729 52.411186 -19.466663 -14.3956 29.410393 -1e-06 -8.774822 -2e-06 15.329268 -17.479452 5.599331 -0.609775 -1.795654 -3.889328 -4.80709 -11.046811 -2.937849 4e-06 -20.976021 -0.0 -5.019973 -25.033562 -4.03188 7e-06 0.0 -0.0 -10.634532 -5.686971 -3.565587 10.573275 -17.922951 -3.1139 2e-06 -13.821211 -1e-06 -0.501781 -31.181511 -4.027012 -10.3811 -57.862038 5.575377 -13.982717 -7.150198 -2.875041 13.772735 -8.401493 -3.218241 0.347736 -34.211555 0.77165 -0.963029 -17.73337 2.621019 -0.0 -1e-06 -1e-06 -17.346418 -20.095219 -4.201779 21.757555 -1.638373 3.866428 1e-06 -6.338824 -1e-06 -1.697589 -22.591742 -6.194005 -1e-06 -5e-06 -2e-06 173.106064 -71.331558 15.532776 11.49601 -23.993916 -76.463417 149.419479 -0.290529 0.990392 -16.266296 20.061653 11.038348 22.182121 -20.375898 49.933323 -16.701818 -16.743532 28.476536 -3e-06 -12.690603 -1e-06 14.984185 -17.97957 2.930541 -0.105917 -1.513856 -4.275882 -5.039042 -5.612872 -2.953557 3e-06 -11.020525 -2e-06 -6.111301 -15.895338 -3.840472 0.0 -0.0 1e-06 -10.283373 -5.68029 -4.341839 11.028297 -11.302408 -2.372633 -1.384269 -14.238585 -6.320123 -0.625438 -26.924196 -3.827601 -4.431955 -50.444252 -2.963682 -13.70853 -7.363478 -3.72094 18.141157 -14.052743 -3.242676 5e-06 -18.787271 -3e-06 -0.429711 -8.456045 2.555504 1e-06 -1e-06 -1e-06 -15.923539 -20.094492 -5.473587 30.419222 -7.190827 1.735927 2e-06 -8.162928 -0.0 -1.8619 -22.861475 -6.167946 -0.0 -2e-06 -2e-06 -174.632278 -16.969538 -122.743309 -0.484198 -10.971539 92.448601 -94.505226 34.34396 -19.187599 -18.251225 0.962355 1.83022 -1.0 0.0 0.0 0.36724 -1.060096 -132.807602 -9.34488 -14.145971 119.402229 -89.639038 12.144197 6.898902 -17.707092 0.633273 1.247248 -1.000002 0.0 0.0 
0.0 0.0 0.0 0.0 -0.0 0.0 -12.823383 9.075165 167.482666 152.656113 -85.62252 25.610308 1.429488 0.908249 -0.205363 -10.565169 -0.079192 0.964648 11.279359 -0.901279 0.321578 -7.39593 1.566994 2.480252 -2.535059 -0.774185 -3.844239 -46.1991 1.677652 -6.161633 8e-06 1e-06 -0.0 -0.174277 -0.167395 0.376141 -0.047037 -0.225427 0.456473 -0.045444 -0.104442 0.31626 -8.745996 -65.078972 12.677597 16.838295 -51.34388 -62.443081 160.922607 0.576294 0.724079 -3.041687 19.229259 28.557968 17.636635 -26.322733 52.41119 -19.466661 -14.395596 29.410393 -1e-06 -8.774819 -3e-06 15.338444 -17.505262 5.628354 -0.609773 -1.795654 -3.889328 -4.807088 -11.046813 -2.93785 5e-06 -20.976021 0.0 -5.01997 -25.03356 -4.03188 7e-06 2e-06 0.0 -10.63453 -5.686971 -3.565586 10.573276 -17.922951 -3.113899 3e-06 -13.821211 -1e-06 -0.50178 -31.181505 -4.027011 -10.406545 -57.888851 5.605296 -13.982712 -7.150198 -2.875043 13.772728 -8.401491 -3.21824 0.347731 -34.211555 0.771657 -0.96303 -17.733374 2.621021 -1e-06 -1e-06 -1e-06 -17.346416 -20.095217 -4.201782 21.757557 -1.638376 3.866429 1e-06 -6.338823 0.0 -1.697586 -22.591745 -6.194007 -2e-06 -6e-06 -3e-06 172.914734 -71.331917 15.810688 11.666039 -23.994785 -76.531502 149.344284 -0.369707 0.97654 -16.279486 20.14012 11.077521 22.182112 -20.375887 49.933319 -16.701817 -16.74353 28.476534 -3e-06 -12.690601 0.0 15.045247 -18.010418 2.933638 -0.105921 -1.513856 -4.275882 -5.03904 -5.612872 -2.953557 4e-06 -11.020523 -3e-06 -6.111297 -15.895334 -3.840471 -1e-06 -1e-06 -1e-06 -10.283369 -5.680289 -4.341839 11.028292 -11.302404 -2.372634 -1.384267 -14.238583 -6.320123 -0.625433 -26.924187 -3.827606 -4.46041 -50.52623 -2.939118 -13.708524 -7.363477 -3.720938 18.141153 -14.052739 -3.242677 7e-06 -18.78727 -4e-06 -0.429708 -8.456039 2.555503 -0.0 1e-06 -1e-06 -15.923536 -20.094484 -5.473585 30.419214 -7.190824 1.735924 2e-06 -8.162925 -1e-06 -1.861899 -22.861467 -6.167947 -1e-06 -3e-06 -1e-06 -174.411835 -16.850882 -122.755333 -0.424085 -10.645129 92.448395 -94.358963 34.232086 -19.078585 -18.109432 0.961163 1.835673 -0.999999 -0.0 0.0 -0.020292 -1.165697 -132.823639 -9.817912 -14.873799 119.582848 -89.704117 11.973566 6.924248 -17.58367 0.63221 1.251297 -1.000001 0.0 0.0 
0.0 0.0 0.0 0.0 -0.0 0.0 -12.83119 9.045434 167.401535 152.053482 -85.566986 26.205299 1.428999 0.919381 -0.209135 -10.564441 -0.090476 0.955741 11.285508 -0.945209 0.348566 -7.445036 1.486723 2.473829 -2.531969 -0.78018 -3.860722 -46.226475 1.686363 -6.228994 6e-06 1e-06 -0.0 -0.174157 -0.166555 0.375394 -0.045518 -0.224459 0.455243 -0.046253 -0.103017 0.315382 -8.717317 -65.092743 12.60852 16.927271 -51.258976 -62.216541 160.830856 0.561481 0.74764 -2.870886 19.333515 28.978827 17.636637 -26.322731 52.411209 -19.466671 -14.3956 29.410402 -1e-06 -8.774824 -2e-06 15.359756 -17.533989 5.626052 -0.609774 -1.795654 -3.88933 -4.807092 -11.046816 -2.937852 5e-06 -20.976025 -1e-06 -5.01997 -25.033571 -4.031885 8e-06 3e-06 1e-06 -10.634538 -5.686975 -3.565588 10.57328 -17.922958 -3.113904 3e-06 -13.821216 -2e-06 -0.501773 -31.181522 -4.02702 -10.433928 -57.905708 5.621509 -13.982719 -7.150201 -2.875044 13.772735 -8.401497 -3.218243 0.347735 -34.211571 0.771648 -0.963028 -17.733376 2.621018 -0.0 -2e-06 -1e-06 -17.346426 -20.095228 -4.201783 21.757568 -1.638374 3.866429 2e-06 -6.338827 -0.0 -1.69759 -22.591763 -6.194013 -1e-06 -4e-06 -3e-06 172.68042 -71.358215 16.109562 11.880646 -23.986824 -76.461212 149.254395 -0.428732 0.947668 -16.173941 20.309227 11.195448 22.182137 -20.375898 49.933338 -16.70183 -16.743536 28.476545 -4e-06 -12.690607 -2e-06 15.106241 -18.035828 2.926302 -0.10592 -1.513857 -4.275883 -5.039044 -5.612875 -2.953558 4e-06 -11.020532 -3e-06 -6.111301 -15.895345 -3.840474 -0.0 0.0 1e-06 -10.283374 -5.680292 -4.341843 11.0283 -11.302413 -2.372634 -1.384267 -14.238591 -6.320127 -0.625437 -26.92421 -3.827604 -4.486781 -50.606224 -2.908879 -13.708534 -7.363481 -3.720941 18.141161 -14.05275 -3.242676 9e-06 -18.787281 -5e-06 -0.429711 -8.45605 2.555506 -0.0 0.0 -1e-06 -15.923545 -20.0945 -5.473589 30.419224 -7.190832 1.735927 2e-06 -8.16293 -1e-06 -1.861902 -22.861486 -6.167951 0.0 -1e-06 -0.0 -174.261002 -16.794245 -122.727547 -0.36708 -10.568086 92.394508 -94.366486 34.144615 -19.06797 -17.852074 0.955813 1.841024 -1.0 -0.0 0.0 -0.335287 -1.27722 -132.865356 -10.2182 -15.505969 119.782013 -89.464546 11.723962 6.991874 -17.384871 0.628077 1.256362 -1.000001 0.0 -0.0 
